<?xml version="1.0" standalone="no"?>
<!DOCTYPE svg PUBLIC "-//W3C//DTD SVG 20010904//EN"
 "http://www.w3.org/TR/2001/REC-SVG-20010904/DTD/svg10.dtd">
<svg version="1.0" xmlns="http://www.w3.org/2000/svg"
 width="512.000000pt" height="512.000000pt" viewBox="0 0 512.000000 512.000000"
 preserveAspectRatio="xMidYMid meet">
<metadata>
Created by potrace 1.14, written by Peter Selinger 2001-2017
</metadata>
<g transform="translate(0.000000,512.000000) scale(0.100000,-0.100000)"
fill="#000000" stroke="none">
<path d="M3202 5099 c-7 -11 -32 -75 -56 -142 -46 -128 -187 -490 -211 -542
-40 -85 -235 -580 -254 -645 -12 -41 -49 -164 -83 -273 -33 -109 -57 -201 -54
-204 6 -6 86 -5 166 2 19 2 58 4 87 4 l51 1 115 173 c110 167 115 176 121 241
4 37 9 76 11 88 3 11 7 46 10 77 4 31 8 67 11 81 2 14 6 50 9 80 3 30 8 66 10
80 5 27 11 66 20 145 3 28 8 64 10 80 2 17 7 53 10 80 4 28 8 64 10 80 2 17 6
50 10 75 3 25 7 63 10 85 3 22 7 56 10 75 3 19 7 55 10 80 3 25 7 56 10 70 2
14 7 54 10 90 4 36 8 73 11 82 6 21 -12 58 -29 58 -7 0 -18 -9 -25 -21z"/>
<path d="M4629 3556 c-2 -2 -31 -7 -64 -10 -33 -4 -67 -8 -75 -11 -8 -2 -35
-6 -60 -9 -25 -3 -54 -8 -65 -10 -11 -2 -42 -7 -70 -10 -27 -4 -62 -9 -77 -11
-15 -3 -105 -16 -200 -30 -95 -14 -184 -28 -198 -30 -14 -2 -45 -7 -70 -10
-25 -3 -52 -8 -60 -10 -8 -2 -42 -7 -75 -10 -32 -4 -62 -8 -65 -10 -3 -1 -27
-6 -55 -9 -245 -33 -251 -35 -440 -126 -93 -45 -180 -86 -193 -91 -12 -5 -89
-12 -170 -15 -152 -7 -154 -8 -507 -105 -38 -10 -83 -21 -99 -24 -16 -3 -33
-8 -37 -11 -5 -3 -53 -16 -106 -30 -54 -14 -105 -27 -114 -30 -11 -3 -19 7
-28 37 -46 151 -212 291 -413 345 -97 26 -290 24 -393 -5 -543 -152 -728 -737
-327 -1033 52 -39 164 -95 206 -104 96 -21 132 -25 211 -24 113 1 143 5 230
31 97 29 180 74 327 176 70 48 151 103 180 121 85 54 326 168 413 196 92 30
225 57 225 46 0 -7 -13 -73 -24 -125 -35 -166 -184 -461 -356 -705 -120 -169
-168 -275 -189 -422 -11 -71 -9 -208 4 -278 18 -97 96 -245 171 -324 39 -41
137 -102 195 -121 46 -16 49 -19 49 -50 0 -64 40 -230 77 -315 49 -115 135
-249 215 -332 46 -48 62 -57 101 -63 30 -5 58 -3 77 5 38 16 90 74 92 103 0
12 2 29 3 37 3 29 -26 85 -73 140 -104 122 -169 255 -187 385 -4 28 -8 59 -10
71 -2 17 9 26 58 50 132 62 245 177 318 324 105 210 119 432 39 642 -24 65
-75 144 -129 202 -44 47 -142 112 -191 127 l-36 11 54 197 c29 108 60 221 68
251 9 30 17 63 19 73 16 74 59 204 68 204 7 0 109 28 227 62 118 35 223 64
232 66 46 10 177 48 203 60 17 7 71 30 120 50 50 21 110 46 135 57 162 73 654
268 742 294 27 8 66 32 95 58 40 37 46 47 37 62 -11 18 -27 28 -35 20z m-3259
-548 c89 -42 138 -102 146 -177 14 -139 -140 -296 -329 -335 -173 -36 -356 28
-403 141 -66 156 95 348 331 396 11 3 61 3 110 2 72 -1 101 -7 145 -27z m1251
-1230 c177 -98 175 -451 -3 -630 -182 -183 -399 -83 -415 192 -9 137 34 264
119 356 95 103 206 134 299 82z"/>
</g>
</svg>
