<svg width="61" height="108" viewBox="0 0 61 108" fill="none" xmlns="http://www.w3.org/2000/svg">
<path fill-rule="evenodd" clip-rule="evenodd" d="M58.8901 42.5194C58.8901 42.5194 64.6989 29.8854 53.8075 21.0271C53.8075 21.0271 48.7248 -5.40268 32.7508 2.58434C11.2585 -6.85486 11.4037 17.8323 2.10972 26.4002C-1.66596 30.0306 2.10972 37.4368 2.10972 37.4368C2.10972 37.4368 -0.504211 45.1333 2.98103 47.8925C2.98103 47.8925 0.367099 57.6221 6.32105 61.543C7.19237 70.9822 0.512317 77.2266 3.85234 86.5206L0.512318 95.9598C0.512318 95.9598 6.32105 95.9598 8.93499 91.0224C8.93499 91.0224 5.59496 103.511 12.4202 107.868C10.5324 98.1381 28.3943 81.1475 17.5029 68.3683C15.3246 65.6091 17.5029 61.1074 17.5029 61.1074C17.5029 61.1074 11.8394 50.9421 13.8724 39.9055C13.8724 39.9055 32.4604 27.7071 32.7508 16.5253C33.0412 9.99048 37.9787 37.0011 48.4344 35.9846C47.4179 45.2786 53.3718 50.7969 45.8205 61.8335C40.7378 69.0944 37.3978 95.3789 49.7414 101.769C49.7414 101.769 48.87 97.412 49.7414 95.9598C50.4674 94.5076 63.2467 82.8901 58.8901 73.0153C54.6788 63.2856 53.2266 64.5926 57.2927 58.3482C57.2927 58.3482 59.3258 55.8795 57.8736 51.5229C57.8736 51.5229 62.9562 48.4734 58.8901 42.5194Z" fill="black"/>
</svg>
