<svg width="82" height="60" viewBox="0 0 82 60" fill="none" xmlns="http://www.w3.org/2000/svg">
<path fill-rule="evenodd" clip-rule="evenodd" d="M40.8299 27.53C34.1199 38.55 32.1099 40.4 19.6799 41.95C19.6799 45.54 21.5399 53.36 24.1699 55.72C18.4599 57.9 12.7799 54.66 9.26995 50.2C9.26995 50.2 8.46994 54.04 10.6299 55.32C12.7899 56.61 15.3599 57.89 15.3599 57.89C-16.5201 64.03 14.4399 26.37 14.5599 26.01C20.0599 8.11 26.8699 -8.48999 49.6399 6.31001C61.0199 -8.55999 65.5099 28.11 66.4599 28.81C77.3599 36.86 91.3299 43.13 69.6599 56.84C70.3199 54.74 71.6899 46.69 69.6599 45.47C68.0099 58.36 64.1899 59.06 52.1999 59.41C57.2099 51.59 59.0899 46.99 59.0899 37.7L56.3599 41.55C56.9099 35.75 52.0399 26.33 48.8399 21.52C50.4899 33.6 48.9399 35.63 37.7799 38.5C41.0899 36.31 46.9299 29.32 40.8299 27.53Z" fill="black"/>
</svg>
