<svg width="67" height="59" viewBox="0 0 67 59" fill="none" xmlns="http://www.w3.org/2000/svg">
<path d="M54.215 14.4677C54.215 14.4677 62.2911 14.1741 66.4027 17.6982C66.4027 17.6982 59.3544 5.95099 47.4604 4.62949C35.5664 3.30791 26.4624 -2.4188 17.0647 3.16097C13.4767 5.29125 10.8526 8.95378 9.84674 13.0131C6.46624 14.2081 0.187675 17.4458 0.618489 24.9457C1.2059 35.1721 6.34529 44.5925 5.31741 58.2373C5.31741 58.2373 9.86939 47.025 8.69475 39.3365C7.51993 31.6479 13.0999 35.6127 15.4493 32.8227C17.7987 30.0327 12.059 30.6719 11.5516 23.9648C14.2271 27.9248 19.0468 30.013 24.0856 29.6276C32.2972 28.9994 40.2164 27.3956 48.4967 28.3842C53.0891 28.9324 60.1429 30.5443 59.691 36.5106C59.4755 39.3553 57.7596 42.0396 56.1239 44.2762C56.1239 44.2762 61.557 40.752 63.319 32.3822C65.0812 24.0123 62.438 18.8729 54.215 14.4677Z" fill="#000000"/>
</svg>
